<?xml version="1.0" encoding="UTF-8"?>
<svg id="Layer_1" xmlns="http://www.w3.org/2000/svg" version="1.1" viewBox="0 0 31.8 36.9">
  <!-- Generator: Adobe Illustrator 29.7.1, SVG Export Plug-In . SVG Version: 2.1.1 Build 8)  -->
  <defs>
    <style>
      .st0 {
        fill: #fff;
      }
    </style>
  </defs>
  <g>
    <path class="st0" d="M13.6,4.9c.8,0,1,.2.9,1.1l-2.8,26.1h-3.1l2.6-24.5h-.8l-2.6,24.5h-3.1L7.4,7.6h-.8l-2.5,24.5H.9L3.8,4.9h9.9Z"/>
    <path class="st0" d="M19.6,32h-5.9c-.8,0-1.1-.2-.9-1l2.6-25c0-.8.4-1.1,1.2-1.1h2.9l.4-3.6h3s-3.2,30.7-3.2,30.7ZM18.2,7.6l-2.3,21.8h.8l2.3-21.8s-.8,0-.8,0Z"/>
    <path class="st0" d="M20.5,32.9h4v-.9c0,0-3,0-3,0-.8,0-1-.2-.9-1l2.6-25c0-.8.4-1.1,1.2-1.1h4.9c.8,0,1,.2.9,1.1l-3.1,28.8c0,.8-.4,1.2-1.3,1.2h-5.7s.4-2.9.4-2.9ZM24.5,29.3l2.3-21.8h-.8l-2.3,21.8h.8Z"/>
  </g>
  <path class="st0" d="M28.2,29.3h2.8l-.2,2.7h-2.8s.2-2.7.2-2.7Z"/>
</svg>